<svg version="1" xmlns="http://www.w3.org/2000/svg" width="346.667" height="346.667" viewBox="0 0 260.000000 260.000000"><path d="M0 130v130h260V0H0v130zm168.8-99.4l28.2.5v13.7l-3.7.6c-2.1.3-7.8 1.1-12.8 1.6-4.9.6-9.1 1.2-9.2 1.4-.2.1 1.1 2.8 2.7 5.9 10.5 19.2 5.9 44-10.3 56.9-10.1 7.9-21.1 11-39.4 11l-12.2-.1-4.4 3.9c-9.5 8.4-9.8 18.2-.7 23.6.8.5 12.8 1.2 26.5 1.5 25.9.7 32.2 1.5 41.2 5.4 15.1 6.7 22.9 23.6 19.3 41.7-3.4 17.8-16.1 29.7-37.9 35.7-17 4.7-45.9 5.3-61.4 1.2-19.3-5-30.6-16.6-32.3-32.8-1.8-17.3 8.7-32.4 26.8-38.2l3.7-1.2-4.1-3.7c-7-6.3-9.3-14.2-6.7-23.7.8-2.9 3-5.9 8.1-10.8 3.8-3.8 6.8-6.9 6.7-7.1-.2-.1-2-1.2-4-2.4-13.5-8.1-21.5-27.6-18.9-45.9C76.6 50.9 85.7 39 101.8 33c8.9-3.4 12.7-3.9 26.2-3.4 6.9.2 25.2.6 40.8 1z"/><path d="M120.8 45.1c-10.7 1.2-17.6 5.5-22.2 14-2.4 4.3-3 6.8-3.4 14.4-.8 15.6 3.1 24 13.9 30 5.1 2.9 6 3 17.4 3 13.3 0 18.3-1.5 23.9-7.1 5.6-5.6 7.1-10.6 7.1-23.4 0-10.5-.3-11.9-2.7-16.6-3-5.6-7.5-9.9-12.6-12.1-4.6-1.9-14.6-3-21.4-2.2zM101.2 172.4C89.9 176.1 83 185.5 83 197.2c0 16.5 13 24.2 40.5 24 31.2-.3 48.4-9.7 50.2-27.6 1-10-3-17.3-11.4-20.5-5.5-2.1-54.9-2.6-61.1-.7z"/></svg>